<?xml version="1.0" standalone="no"?>
<!DOCTYPE svg PUBLIC "-//W3C//DTD SVG 20010904//EN"
 "http://www.w3.org/TR/2001/REC-SVG-20010904/DTD/svg10.dtd">
<svg version="1.0" xmlns="http://www.w3.org/2000/svg"
 width="794.000000pt" height="140.000000pt" viewBox="0 0 794.000000 140.000000"
 preserveAspectRatio="xMidYMid meet">

<g transform="translate(0.000000,140.000000) scale(0.100000,-0.100000)"
fill="#000000" stroke="none">
<path d="M1760 1273 c-16 -17 -20 -28 -12 -31 7 -2 12 -12 12 -23 0 -10 5 -19
10 -19 6 0 10 -33 10 -80 0 -47 -4 -80 -10 -80 -6 0 -10 -27 -10 -60 0 -33 -4
-60 -10 -60 -5 0 -10 -22 -10 -50 0 -27 -4 -50 -10 -50 -5 0 -10 -22 -10 -50
0 -27 -4 -50 -10 -50 -5 0 -10 -22 -10 -50 0 -27 -4 -50 -10 -50 -5 0 -10 -22
-10 -50 0 -27 -4 -50 -10 -50 -5 0 -10 -13 -10 -30 0 -16 -4 -30 -10 -30 -5 0
-10 -18 -10 -40 0 -22 -4 -40 -10 -40 -5 0 -10 -18 -10 -39 0 -22 -6 -42 -12
-45 -10 -5 -10 -7 0 -12 6 -3 12 -12 12 -21 0 -21 25 -43 50 -43 11 0 36 16
55 35 30 29 35 41 35 80 0 25 5 45 10 45 6 0 10 27 10 60 0 33 4 60 10 60 6 0
10 14 10 30 0 17 5 30 10 30 6 0 10 14 10 30 0 17 5 30 10 30 6 0 10 8 10 18
0 10 9 24 20 32 11 8 20 20 20 27 0 8 20 34 45 58 38 39 50 45 85 45 48 0 90
-35 90 -75 0 -14 5 -25 10 -25 6 0 10 -9 10 -20 0 -11 -4 -20 -10 -20 -6 0
-10 -30 -10 -70 0 -40 -4 -70 -10 -70 -5 0 -10 -22 -10 -50 0 -27 -4 -50 -10
-50 -6 0 -10 -29 -10 -66 0 -48 4 -70 17 -82 12 -12 18 -13 21 -4 2 7 23 12
53 12 27 0 49 5 49 10 0 6 -4 10 -10 10 -6 0 -10 33 -10 80 0 47 4 80 10 80 6
0 10 23 10 50 0 28 5 50 10 50 6 0 10 23 10 50 0 28 5 50 10 50 6 0 10 27 10
60 0 33 -4 60 -10 60 -5 0 -10 7 -10 15 0 9 -16 31 -35 50 -31 32 -40 35 -90
35 -30 0 -55 -4 -55 -10 0 -5 -9 -10 -20 -10 -11 0 -20 -4 -20 -10 0 -5 -8
-10 -18 -10 -10 0 -24 -9 -32 -20 -8 -11 -21 -20 -30 -20 -9 0 -22 -9 -30 -20
-8 -11 -22 -20 -32 -20 -15 0 -18 9 -18 50 0 28 5 50 10 50 6 0 10 23 10 50 0
28 5 50 10 50 6 0 10 18 10 40 0 22 5 40 10 40 6 0 10 23 10 50 0 28 5 50 10
50 6 0 10 25 10 55 0 46 -4 60 -25 80 -34 35 -100 34 -135 -2z"/>
<path d="M3580 1290 c0 -5 -9 -10 -20 -10 -11 0 -20 -4 -20 -10 0 -5 7 -10 15
-10 20 0 85 -65 85 -85 0 -8 -4 -15 -10 -15 -6 0 -10 -27 -10 -60 0 -33 -4
-60 -10 -60 -5 0 -10 -18 -10 -40 0 -22 -4 -40 -10 -40 -5 0 -10 -18 -10 -40
0 -22 -4 -40 -10 -40 -6 0 -10 -27 -10 -60 0 -33 -4 -60 -10 -60 -5 0 -10 -22
-10 -50 0 -27 -4 -50 -10 -50 -5 0 -10 -22 -10 -50 0 -27 -4 -50 -10 -50 -5 0
-10 -18 -10 -40 0 -22 -4 -40 -10 -40 -5 0 -10 -18 -10 -40 0 -22 -4 -40 -10
-40 -5 0 -10 -18 -10 -40 0 -22 -4 -40 -10 -40 -15 0 -12 -70 4 -86 16 -16 86
-19 86 -4 0 6 9 10 20 10 11 0 20 5 20 10 0 6 9 10 20 10 11 0 20 5 20 10 0 6
9 10 20 10 11 0 20 5 20 10 0 6 9 10 20 10 13 0 20 7 20 20 0 11 -4 20 -10 20
-5 0 -10 -4 -10 -10 0 -5 -18 -10 -40 -10 l-40 0 0 80 c0 47 4 80 10 80 6 0
10 27 10 60 0 33 4 60 10 60 6 0 10 23 10 50 0 28 5 50 10 50 6 0 10 23 10 50
0 28 5 50 10 50 6 0 10 23 10 50 0 28 5 50 10 50 6 0 10 23 10 50 0 28 5 50
10 50 6 0 10 18 10 40 0 22 5 40 10 40 6 0 10 23 10 50 0 28 5 50 10 50 6 0
10 27 10 60 l0 60 -90 0 c-53 0 -90 -4 -90 -10z"/>
<path d="M143 1215 c-23 -24 -32 -75 -13 -75 6 0 10 -13 10 -30 0 -16 5 -30
10 -30 6 0 10 -22 10 -50 0 -27 5 -50 10 -50 6 0 10 -87 10 -240 0 -153 4
-240 10 -240 6 0 10 -38 10 -95 0 -88 2 -98 25 -120 24 -25 55 -33 55 -15 0 6
7 10 16 10 18 0 44 24 44 40 0 7 14 25 30 40 17 15 30 34 30 42 0 7 9 20 20
28 11 8 20 22 20 32 0 10 5 18 10 18 6 0 10 8 10 18 0 10 9 24 20 32 11 8 20
21 20 30 0 9 9 22 20 30 11 8 20 22 20 32 0 10 5 18 10 18 6 0 10 8 10 18 0
10 9 24 20 32 11 8 20 22 20 32 0 10 5 18 10 18 6 0 10 8 10 18 0 10 9 24 20
32 11 8 20 20 20 28 0 7 7 20 15 28 13 14 17 14 30 0 12 -12 15 -46 15 -180 0
-104 4 -166 10 -166 6 0 10 -30 10 -70 0 -40 4 -70 10 -70 6 0 10 -7 10 -15 0
-25 46 -65 75 -65 14 0 25 5 25 10 0 6 7 10 16 10 18 0 44 24 44 40 0 7 13 25
30 40 16 15 30 35 30 44 0 9 5 16 10 16 6 0 10 8 10 18 0 10 9 24 20 32 11 8
20 22 20 32 0 10 5 18 10 18 6 0 10 9 10 20 0 11 5 20 10 20 6 0 10 8 10 18 0
10 9 24 20 32 11 8 20 22 20 32 0 10 5 18 10 18 6 0 10 9 10 20 0 11 5 20 10
20 6 0 10 8 10 18 0 10 9 24 20 32 11 8 20 22 20 32 0 10 5 18 10 18 6 0 10 8
10 18 0 10 9 24 20 32 11 8 20 22 20 32 0 10 5 18 10 18 6 0 10 8 10 18 0 10
9 24 20 32 11 8 20 21 20 30 0 9 9 22 20 30 11 8 20 21 20 30 0 9 9 22 20 30
11 8 20 21 20 30 0 9 9 22 20 30 23 17 26 55 6 76 -17 16 -106 20 -106 4 0 -5
-7 -10 -15 -10 -9 0 -31 -16 -50 -35 -33 -32 -35 -38 -35 -100 0 -37 -4 -65
-10 -65 -5 0 -10 -13 -10 -30 0 -16 -4 -30 -10 -30 -5 0 -10 -9 -10 -20 0 -11
-4 -20 -10 -20 -5 0 -10 -9 -10 -20 0 -11 -4 -20 -10 -20 -5 0 -10 -9 -10 -20
0 -11 -4 -20 -10 -20 -5 0 -10 -8 -10 -18 0 -10 -9 -24 -20 -32 -11 -8 -20
-22 -20 -32 0 -10 -4 -18 -10 -18 -5 0 -10 -9 -10 -20 0 -11 -4 -20 -10 -20
-5 0 -10 -8 -10 -18 0 -10 -9 -24 -20 -32 -11 -8 -20 -21 -20 -30 0 -9 -9 -22
-20 -30 -11 -8 -20 -20 -20 -28 0 -7 -11 -24 -25 -38 -22 -22 -27 -23 -40 -10
-8 8 -15 26 -15 40 0 14 -4 26 -10 26 -6 0 -10 97 -10 270 0 173 4 270 10 270
15 0 12 70 -4 86 -17 16 -146 20 -146 4 0 -5 -7 -10 -15 -10 -9 0 -27 -11 -40
-25 -25 -24 -33 -55 -15 -55 6 0 10 -30 10 -70 0 -40 -4 -70 -10 -70 -5 0 -10
-13 -10 -30 0 -16 -4 -30 -10 -30 -5 0 -10 -13 -10 -30 0 -16 -4 -30 -10 -30
-5 0 -10 -9 -10 -20 0 -11 -4 -20 -10 -20 -5 0 -10 -9 -10 -20 0 -11 -4 -20
-10 -20 -5 0 -10 -9 -10 -20 0 -11 -4 -20 -10 -20 -5 0 -10 -8 -10 -18 0 -10
-9 -24 -20 -32 -11 -8 -20 -22 -20 -32 0 -10 -4 -18 -10 -18 -5 0 -10 -7 -10
-15 0 -26 -86 -105 -115 -105 -18 0 -25 5 -25 20 0 11 -4 20 -10 20 -6 0 -10
87 -10 240 0 153 4 240 10 240 6 0 10 14 10 30 0 17 5 30 10 30 6 0 10 16 10
35 0 38 -36 85 -65 85 -8 0 -15 5 -15 10 0 6 -25 10 -57 9 -48 0 -62 -4 -80
-24z"/>
<path d="M7560 1090 c0 -5 -9 -10 -20 -10 -13 0 -20 -7 -20 -20 0 -11 -4 -20
-10 -20 -5 0 -10 -9 -10 -20 0 -11 -4 -20 -10 -20 -5 0 -10 -7 -10 -15 0 -20
-85 -105 -105 -105 -22 0 -19 -33 5 -50 11 -8 20 -22 20 -32 0 -10 5 -18 10
-18 6 0 10 -13 10 -30 0 -16 -4 -30 -10 -30 -5 0 -10 -22 -10 -50 0 -27 -4
-50 -10 -50 -5 0 -10 -22 -10 -50 0 -27 -4 -50 -10 -50 -6 0 -10 -27 -10 -60
0 -33 -4 -60 -10 -60 -5 0 -10 -22 -10 -50 0 -27 5 -50 10 -50 6 0 10 -7 10
-15 0 -9 11 -27 25 -40 18 -19 35 -25 70 -25 25 0 45 5 45 10 0 6 9 10 20 10
11 0 20 5 20 10 0 6 9 10 20 10 11 0 20 5 20 10 0 6 7 10 16 10 23 0 44 25 44
54 0 19 -5 26 -20 26 -11 0 -20 -4 -20 -10 0 -16 -109 -12 -126 4 -16 16 -19
86 -4 86 6 0 10 27 10 60 0 33 4 60 10 60 6 0 10 18 10 40 0 22 5 40 10 40 6
0 10 14 10 30 0 17 5 30 10 30 6 0 10 14 10 30 0 17 5 30 10 30 6 0 10 7 10
16 0 20 24 44 44 44 9 0 16 5 16 10 0 6 16 10 36 10 19 0 42 6 50 14 19 20 18
26 -6 26 -11 0 -20 5 -20 10 0 6 -9 10 -20 10 -11 0 -20 5 -20 10 0 6 -9 10
-20 10 -18 0 -20 7 -20 76 0 52 -4 80 -14 90 -17 16 -26 18 -26 4z"/>
<path d="M2880 910 c0 -5 -13 -10 -30 -10 -16 0 -30 -4 -30 -10 0 -5 -11 -10
-25 -10 -18 0 -47 -21 -100 -75 -41 -41 -75 -81 -75 -90 0 -8 -4 -15 -10 -15
-5 0 -10 -9 -10 -20 0 -11 -4 -20 -10 -20 -5 0 -10 -13 -10 -30 0 -16 -4 -30
-10 -30 -6 0 -10 -47 -10 -120 0 -73 4 -120 10 -120 6 0 10 -7 10 -15 0 -20
85 -105 105 -105 8 0 15 -4 15 -10 0 -6 37 -10 90 -10 53 0 90 4 90 10 0 6 9
10 20 10 11 0 20 5 20 10 0 6 9 10 20 10 11 0 20 5 20 10 0 6 7 10 15 10 20 0
105 85 105 105 0 8 5 15 10 15 6 0 10 9 10 20 0 11 5 20 10 20 6 0 10 9 10 20
0 11 5 20 10 20 6 0 10 9 10 20 0 11 5 20 10 20 6 0 10 47 10 120 0 73 -4 120
-10 120 -5 0 -10 9 -10 20 0 11 -4 20 -10 20 -5 0 -10 7 -10 15 0 20 -45 65
-65 65 -8 0 -15 5 -15 10 0 6 -9 10 -20 10 -11 0 -20 5 -20 10 0 6 -27 10 -60
10 -33 0 -60 -4 -60 -10z m80 -60 c0 -5 7 -10 16 -10 20 0 44 -24 44 -44 0 -9
5 -16 10 -16 6 0 10 -22 10 -50 0 -27 5 -50 10 -50 6 0 10 -9 10 -20 0 -11 -4
-20 -10 -20 -6 0 -10 -27 -10 -60 0 -33 -4 -60 -10 -60 -5 0 -10 -13 -10 -30
0 -16 -4 -30 -10 -30 -5 0 -10 -9 -10 -20 0 -11 -4 -20 -10 -20 -5 0 -10 -7
-10 -15 0 -20 -85 -105 -105 -105 -8 0 -15 -4 -15 -10 0 -5 -25 -10 -55 -10
-46 0 -60 4 -80 25 -14 13 -25 31 -25 40 0 8 -4 15 -10 15 -6 0 -10 50 -10
130 0 80 4 130 10 130 6 0 10 9 10 20 0 11 5 20 10 20 6 0 10 9 10 20 0 11 5
20 10 20 6 0 10 8 10 18 0 10 9 24 20 32 11 8 20 20 20 28 0 18 25 42 44 42 9
0 16 5 16 10 0 6 9 10 20 10 11 0 20 5 20 10 0 6 18 10 40 10 22 0 40 -4 40
-10z"/>
<path d="M4360 910 c0 -5 -18 -10 -40 -10 -22 0 -40 -4 -40 -10 0 -5 -9 -10
-20 -10 -11 0 -20 -4 -20 -10 0 -5 -8 -10 -18 -10 -10 0 -24 -9 -32 -20 -8
-11 -20 -20 -28 -20 -17 0 -42 -24 -42 -40 0 -7 -13 -25 -30 -40 -16 -15 -30
-35 -30 -44 0 -9 -4 -16 -10 -16 -5 0 -10 -9 -10 -20 0 -11 -4 -20 -10 -20 -5
0 -10 -18 -10 -40 0 -22 -4 -40 -10 -40 -6 0 -10 -40 -10 -100 0 -60 4 -100
10 -100 6 0 10 -8 10 -18 0 -10 9 -24 20 -32 11 -8 20 -22 20 -32 0 -11 7 -18
18 -18 10 0 24 -9 32 -20 13 -17 26 -20 102 -20 52 0 88 4 88 10 0 6 14 10 30
10 17 0 30 5 30 10 0 6 8 10 18 10 10 0 24 9 32 20 8 11 22 20 32 20 11 0 18
7 18 20 0 11 5 20 10 20 6 0 10 9 10 20 0 11 -4 20 -10 20 -5 0 -10 -4 -10
-10 0 -5 -9 -10 -20 -10 -11 0 -20 -4 -20 -10 0 -5 -9 -10 -20 -10 -11 0 -20
-4 -20 -10 0 -5 -9 -10 -20 -10 -11 0 -20 -4 -20 -10 0 -6 -27 -10 -60 -10
-33 0 -60 4 -60 10 0 6 -7 10 -15 10 -20 0 -65 45 -65 65 0 8 -4 15 -10 15 -5
0 -10 23 -10 50 0 28 5 50 10 50 6 0 10 9 10 20 0 16 7 20 30 20 17 0 30 5 30
10 0 6 23 10 50 10 28 0 50 5 50 10 0 6 18 10 40 10 22 0 40 5 40 10 0 6 14
10 30 10 17 0 30 5 30 10 0 6 7 10 15 10 20 0 85 65 85 85 0 8 5 15 10 15 6 0
10 23 10 50 0 28 -4 50 -10 50 -5 0 -10 7 -10 16 0 20 -24 44 -44 44 -9 0 -16
5 -16 10 0 6 -13 10 -30 10 -16 0 -30 5 -30 10 0 6 -13 10 -30 10 -16 0 -30
-4 -30 -10z m55 -75 c14 -13 25 -31 25 -40 0 -8 5 -15 10 -15 6 0 10 -9 10
-20 0 -11 -4 -20 -10 -20 -5 0 -10 -7 -10 -15 0 -20 -45 -65 -65 -65 -8 0 -15
-4 -15 -10 0 -5 -9 -10 -20 -10 -11 0 -20 -4 -20 -10 0 -5 -13 -10 -30 -10
-16 0 -30 -4 -30 -10 0 -6 -27 -10 -60 -10 l-60 0 0 30 c0 17 5 30 10 30 6 0
10 13 10 28 0 16 8 34 20 42 11 8 20 20 20 28 0 18 46 62 65 62 8 0 15 5 15
10 0 6 9 10 20 10 11 0 20 5 20 10 0 21 70 10 95 -15z"/>
<path d="M5880 910 c0 -5 -18 -10 -40 -10 -22 0 -40 -4 -40 -10 0 -5 -8 -10
-18 -10 -10 0 -24 -9 -32 -20 -8 -11 -20 -20 -28 -20 -17 0 -62 -45 -62 -62 0
-8 -9 -20 -20 -28 -11 -8 -20 -22 -20 -32 0 -10 -4 -18 -10 -18 -5 0 -10 -9
-10 -20 0 -11 -4 -20 -10 -20 -5 0 -10 -9 -10 -20 0 -11 -4 -20 -10 -20 -5 0
-10 -22 -10 -50 0 -27 -4 -50 -10 -50 -5 0 -10 -22 -10 -50 0 -27 5 -50 10
-50 6 0 10 -13 10 -30 0 -16 5 -30 10 -30 6 0 10 -9 10 -20 0 -11 5 -20 10
-20 6 0 10 -7 10 -16 0 -20 24 -44 44 -44 9 0 16 -4 16 -10 0 -5 9 -10 20 -10
11 0 20 -4 20 -10 0 -6 37 -10 90 -10 53 0 90 4 90 10 0 6 9 10 20 10 11 0 20
5 20 10 0 6 7 10 15 10 20 0 165 145 165 165 0 8 5 15 10 15 6 0 10 9 10 20 0
11 5 20 10 20 6 0 10 18 10 40 0 22 5 40 10 40 6 0 10 37 10 90 0 53 -4 90
-10 90 -5 0 -10 13 -10 28 0 16 -8 34 -20 42 -11 8 -20 22 -20 32 0 11 -7 18
-18 18 -10 0 -24 9 -32 20 -8 11 -22 20 -32 20 -10 0 -18 5 -18 10 0 6 -27 10
-60 10 -33 0 -60 -4 -60 -10z m60 -60 c0 -5 7 -10 15 -10 20 0 65 -45 65 -65
0 -8 5 -15 10 -15 6 0 10 -43 10 -110 0 -67 -4 -110 -10 -110 -5 0 -10 -13
-10 -30 0 -16 -4 -30 -10 -30 -5 0 -10 -9 -10 -20 0 -11 -4 -20 -10 -20 -5 0
-10 -8 -10 -18 0 -10 -9 -24 -20 -32 -11 -8 -20 -20 -20 -28 0 -18 -46 -62
-65 -62 -8 0 -15 -4 -15 -10 0 -5 -25 -10 -55 -10 -50 0 -59 3 -90 35 -22 21
-35 44 -35 60 0 14 -4 25 -10 25 -6 0 -10 33 -10 80 0 47 4 80 10 80 6 0 10
18 10 40 0 22 5 40 10 40 6 0 10 9 10 20 0 11 5 20 10 20 6 0 10 9 10 20 0 11
5 20 10 20 6 0 10 7 10 15 0 26 86 105 115 105 14 0 25 5 25 10 0 6 14 10 30
10 17 0 30 -4 30 -10z"/>
<path d="M6740 910 c0 -5 -13 -10 -30 -10 -16 0 -30 -4 -30 -10 0 -5 -9 -10
-20 -10 -11 0 -20 -4 -20 -10 0 -5 -7 -10 -15 -10 -20 0 -125 -105 -125 -125
0 -8 -4 -15 -10 -15 -5 0 -10 -9 -10 -20 0 -11 -4 -20 -10 -20 -5 0 -10 -9
-10 -20 0 -11 -4 -20 -10 -20 -5 0 -10 -13 -10 -30 0 -16 -4 -30 -10 -30 -6 0
-10 -40 -10 -100 0 -60 4 -100 10 -100 6 0 10 -9 10 -20 0 -11 5 -20 10 -20 6
0 10 -7 10 -15 0 -20 65 -85 85 -85 8 0 15 -4 15 -10 0 -6 37 -10 90 -10 53 0
90 4 90 10 0 6 13 10 28 10 16 0 34 8 42 20 8 11 20 20 27 20 19 0 123 106
123 125 0 8 5 15 10 15 6 0 10 9 10 20 0 11 5 20 10 20 6 0 10 14 10 30 0 17
5 30 10 30 6 0 10 23 10 50 0 28 5 50 10 50 6 0 10 14 10 30 0 17 -4 30 -10
30 -5 0 -10 23 -10 50 0 28 -4 50 -10 50 -5 0 -10 7 -10 15 0 26 -86 105 -115
105 -14 0 -25 5 -25 10 0 6 -27 10 -60 10 -33 0 -60 -4 -60 -10z m80 -60 c0
-5 7 -10 16 -10 20 0 44 -24 44 -44 0 -9 5 -16 10 -16 6 0 10 -13 10 -30 0
-16 5 -30 10 -30 6 0 10 -30 10 -70 0 -40 -4 -70 -10 -70 -5 0 -10 -18 -10
-40 0 -22 -4 -40 -10 -40 -5 0 -10 -9 -10 -20 0 -11 -4 -20 -10 -20 -5 0 -10
-9 -10 -20 0 -11 -4 -20 -10 -20 -5 0 -10 -7 -10 -15 0 -9 -25 -40 -55 -70
-53 -53 -56 -55 -110 -55 -30 0 -55 5 -55 10 0 6 -7 10 -16 10 -20 0 -44 24
-44 44 0 9 -4 16 -10 16 -6 0 -10 47 -10 120 0 73 4 120 10 120 6 0 10 14 10
30 0 17 5 30 10 30 6 0 10 9 10 20 0 11 5 20 10 20 6 0 10 8 10 18 0 10 9 24
20 32 11 8 20 22 20 32 0 11 7 18 18 18 10 0 24 9 32 20 8 11 22 20 32 20 10
0 18 5 18 10 0 6 18 10 40 10 22 0 40 -4 40 -10z"/>
<path d="M4960 890 c0 -5 -9 -10 -20 -10 -11 0 -20 -4 -20 -10 0 -5 -7 -10
-16 -10 -22 0 -44 -25 -44 -50 0 -12 18 -39 40 -60 35 -34 40 -44 40 -84 0
-25 -4 -46 -10 -46 -5 0 -10 -18 -10 -40 0 -22 -4 -40 -10 -40 -5 0 -10 -18
-10 -40 0 -22 -4 -40 -10 -40 -5 0 -10 -13 -10 -30 0 -16 -4 -30 -10 -30 -5 0
-10 -13 -10 -30 0 -16 -4 -30 -10 -30 -5 0 -10 -9 -10 -20 0 -11 5 -20 10 -20
6 0 10 -12 10 -26 0 -14 6 -32 14 -40 16 -16 86 -19 86 -4 0 6 9 10 20 10 13
0 20 7 20 20 0 11 5 20 10 20 6 0 10 40 10 100 0 60 4 100 10 100 6 0 10 18
10 40 0 22 5 40 10 40 6 0 10 14 10 30 0 17 5 30 10 30 6 0 10 9 10 20 0 11 5
20 10 20 6 0 10 9 10 20 0 11 5 20 10 20 6 0 10 7 10 15 0 9 11 27 25 40 21
22 33 25 95 25 83 0 100 11 100 64 l0 36 -58 0 c-46 0 -60 -4 -72 -20 -8 -11
-20 -20 -28 -20 -16 0 -62 -45 -62 -60 0 -17 -26 -40 -44 -40 -12 0 -16 11
-16 50 0 28 -4 50 -10 50 -5 0 -10 9 -10 20 0 13 -7 20 -20 20 -11 0 -20 5
-20 10 0 6 -9 10 -20 10 -11 0 -20 -4 -20 -10z"/>
</g>
</svg>
