<?xml version="1.0" standalone="no"?>
<!DOCTYPE svg PUBLIC "-//W3C//DTD SVG 20010904//EN"
 "http://www.w3.org/TR/2001/REC-SVG-20010904/DTD/svg10.dtd">
<svg version="1.0" xmlns="http://www.w3.org/2000/svg"
 width="332.000000pt" height="330.000000pt" viewBox="0 0 332.000000 330.000000"
 preserveAspectRatio="xMidYMid meet">

<g transform="translate(0.000000,330.000000) scale(0.100000,-0.100000)"
fill="#000000" stroke="none">
<path d="M1983 3135 c-24 -25 -43 -50 -43 -58 0 -7 -9 -19 -20 -27 -11 -8 -20
-22 -20 -32 0 -10 -4 -18 -10 -18 -6 0 -10 -60 -10 -159 0 -118 -3 -160 -12
-164 -8 -2 -9 -8 -4 -13 5 -5 11 -4 13 4 3 6 13 12 24 12 10 0 19 5 19 10 0 6
7 10 15 10 20 0 85 65 85 85 0 8 5 15 10 15 6 0 10 14 10 30 0 17 5 30 10 30
6 0 10 53 10 140 0 87 -4 140 -10 140 -5 0 -10 9 -10 20 0 28 -9 24 -57 -25z"/>
<path d="M1520 2840 c0 -11 -4 -20 -10 -20 -5 0 -10 -22 -10 -50 0 -27 5 -50
10 -50 6 0 10 -17 10 -38 0 -26 6 -42 20 -52 11 -8 20 -20 20 -28 0 -7 27 -40
60 -72 33 -32 60 -65 60 -72 0 -8 9 -20 20 -28 12 -8 20 -26 20 -42 0 -15 5
-28 10 -28 6 0 10 9 10 20 0 11 5 20 10 20 6 0 10 14 10 30 0 17 5 30 10 30 6
0 10 23 10 50 0 28 -4 50 -10 50 -5 0 -10 9 -10 20 0 11 -4 20 -10 20 -5 0
-10 8 -10 18 0 10 -9 24 -20 32 -11 8 -20 20 -20 27 0 12 -163 183 -175 183
-3 0 -5 -9 -5 -20z"/>
<path d="M1000 2830 c0 -5 5 -10 10 -10 6 0 10 -13 10 -30 0 -16 5 -30 10 -30
6 0 10 -13 10 -28 0 -16 8 -34 20 -42 11 -8 20 -20 20 -28 0 -17 25 -42 42
-42 8 0 20 -9 28 -20 8 -12 26 -20 42 -20 15 0 28 -4 28 -10 0 -5 9 -10 20
-10 11 0 20 -4 20 -10 0 -5 8 -10 18 -10 10 0 24 -9 32 -20 8 -11 22 -20 32
-20 10 0 18 -4 18 -10 0 -5 5 -10 10 -10 6 0 10 27 10 60 0 33 -4 60 -10 60
-5 0 -10 8 -10 18 0 10 -9 24 -20 32 -11 8 -20 22 -20 32 0 11 -7 18 -18 18
-10 0 -24 9 -32 20 -8 11 -21 20 -30 20 -9 0 -22 9 -30 20 -8 11 -22 20 -32
20 -10 0 -18 5 -18 10 0 6 -13 10 -30 10 -16 0 -30 5 -30 10 0 6 -9 10 -20 10
-11 0 -20 5 -20 10 0 6 -13 10 -30 10 -16 0 -30 -4 -30 -10z"/>
<path d="M2560 2750 c0 -5 -13 -10 -30 -10 -16 0 -30 -4 -30 -10 0 -5 -9 -10
-20 -10 -11 0 -20 -4 -20 -10 0 -5 -7 -10 -15 -10 -20 0 -85 -65 -85 -85 0 -8
-4 -15 -10 -15 -5 0 -10 -9 -10 -20 0 -11 -4 -20 -10 -20 -5 0 -10 -13 -10
-30 0 -16 -4 -30 -10 -30 -5 0 -10 -9 -10 -20 0 -11 -4 -20 -10 -20 -5 0 -10
-9 -10 -20 0 -11 -4 -20 -10 -20 -5 0 -10 -8 -10 -18 0 -10 -9 -24 -20 -32
-31 -23 -24 -30 30 -30 28 0 50 5 50 10 0 6 9 10 20 10 11 0 20 5 20 10 0 6 7
10 15 10 9 0 36 20 60 45 25 24 45 51 45 60 0 8 5 15 10 15 6 0 10 9 10 20 0
11 5 20 10 20 6 0 10 9 10 20 0 11 5 20 10 20 6 0 10 14 10 30 0 17 5 30 10
30 6 0 10 14 10 30 0 17 5 30 10 30 6 0 10 14 10 30 0 17 -4 30 -10 30 -5 0
-10 -4 -10 -10z"/>
<path d="M2023 2614 c-44 -44 -63 -71 -63 -89 0 -14 -4 -25 -10 -25 -6 0 -10
-57 -10 -150 0 -93 -4 -150 -10 -150 -5 0 -10 -4 -10 -10 0 -5 9 -10 20 -10
11 0 20 5 20 10 0 6 7 10 15 10 20 0 105 85 105 105 0 8 5 15 10 15 6 0 10 14
10 30 0 17 5 30 10 30 6 0 10 52 10 136 0 104 -3 139 -14 150 -8 8 -16 14 -18
13 -2 0 -31 -29 -65 -65z"/>
<path d="M1040 2490 c0 -27 5 -50 10 -50 6 0 10 -13 10 -30 0 -16 5 -30 10
-30 6 0 10 -7 10 -15 0 -19 64 -85 82 -85 8 0 20 -9 28 -20 8 -11 22 -20 32
-20 10 0 18 -4 18 -10 0 -5 9 -10 20 -10 11 0 20 -4 20 -10 0 -5 14 -10 30
-10 17 0 30 -4 30 -10 0 -5 9 -10 20 -10 11 0 20 -4 20 -10 0 -5 14 -10 30
-10 23 0 30 4 30 20 0 11 -4 20 -10 20 -5 0 -10 9 -10 20 0 11 -4 20 -10 20
-5 0 -10 13 -10 28 0 16 -8 34 -20 42 -11 8 -20 20 -20 28 0 18 -25 42 -44 42
-9 0 -16 5 -16 10 0 6 -9 10 -20 10 -11 0 -20 5 -20 10 0 6 -9 10 -20 10 -11
0 -20 5 -20 10 0 6 -13 10 -30 10 -16 0 -30 5 -30 10 0 6 -7 10 -16 10 -8 0
-33 18 -54 40 -21 22 -41 40 -44 40 -3 0 -6 -22 -6 -50z"/>
<path d="M2780 2490 c0 -5 -18 -10 -40 -10 -22 0 -40 -4 -40 -10 0 -5 -9 -10
-20 -10 -11 0 -20 -4 -20 -10 0 -5 -7 -10 -15 -10 -19 0 -85 -64 -85 -82 0 -8
-9 -20 -20 -28 -11 -8 -20 -22 -20 -32 0 -10 -4 -18 -10 -18 -5 0 -10 -7 -10
-16 0 -8 -22 -37 -50 -64 -27 -27 -50 -51 -50 -54 0 -3 36 -6 80 -6 47 0 80 4
80 10 0 6 7 10 15 10 20 0 145 125 145 145 0 8 5 15 10 15 6 0 10 8 10 18 0
10 9 24 20 32 11 8 20 22 20 32 0 10 5 18 10 18 6 0 10 9 10 20 0 11 5 20 10
20 6 0 10 9 10 20 0 13 -7 20 -20 20 -11 0 -20 -4 -20 -10z"/>
<path d="M560 2412 c0 -4 9 -14 20 -22 11 -8 20 -20 20 -27 0 -19 86 -103 105
-103 8 0 15 -4 15 -10 0 -5 14 -10 30 -10 17 0 30 -4 30 -10 0 -5 23 -10 50
-10 28 0 50 -4 50 -10 0 -5 23 -10 50 -10 28 0 50 -4 50 -10 0 -5 9 -10 20
-10 11 0 20 -4 20 -10 0 -5 5 -10 10 -10 6 0 10 9 10 20 0 11 -4 20 -10 20 -5
0 -10 14 -10 30 0 17 -4 30 -10 30 -5 0 -10 7 -10 15 0 20 -65 85 -85 85 -8 0
-15 5 -15 10 0 6 -13 10 -30 10 -16 0 -30 5 -30 10 0 6 -22 10 -50 10 -27 0
-50 5 -50 10 0 6 -37 10 -90 10 -49 0 -90 -4 -90 -8z"/>
<path d="M80 2344 c0 -9 14 -29 30 -44 16 -15 30 -33 30 -40 0 -16 25 -40 42
-40 8 0 20 -9 28 -20 8 -12 26 -20 42 -20 15 0 28 -4 28 -10 0 -6 27 -10 60
-10 33 0 60 -4 60 -10 0 -5 22 -10 48 -10 36 0 51 -5 62 -20 22 -30 30 -24 30
20 0 22 -4 40 -10 40 -5 0 -10 7 -10 15 0 20 -85 105 -105 105 -8 0 -15 5 -15
10 0 6 -13 10 -30 10 -16 0 -30 5 -30 10 0 6 -22 10 -50 10 -27 0 -50 5 -50
10 0 6 -33 10 -80 10 -67 0 -80 -3 -80 -16z"/>
<path d="M1620 2230 c0 -67 4 -110 10 -110 6 0 10 -7 10 -15 0 -9 36 -51 80
-95 44 -44 80 -85 80 -92 0 -8 9 -20 20 -28 11 -8 20 -22 20 -32 0 -10 5 -18
10 -18 6 0 10 9 10 20 0 11 5 20 10 20 6 0 10 37 10 90 0 53 -4 90 -10 90 -5
0 -10 9 -10 20 0 11 -4 20 -10 20 -5 0 -10 7 -10 15 0 14 -202 225 -215 225
-3 0 -5 -49 -5 -110z"/>
<path d="M2200 2150 c0 -5 -9 -10 -20 -10 -11 0 -20 -4 -20 -10 0 -5 -9 -10
-20 -10 -11 0 -20 -4 -20 -10 0 -5 -7 -10 -15 -10 -9 0 -31 -16 -50 -35 -19
-19 -35 -41 -35 -50 0 -8 -4 -15 -10 -15 -5 0 -10 -9 -10 -20 0 -11 -4 -20
-10 -20 -5 0 -10 -13 -10 -30 0 -16 -4 -30 -10 -30 -5 0 -10 -13 -10 -30 0
-16 -4 -30 -10 -30 -5 0 -10 -8 -10 -18 0 -10 -9 -24 -20 -32 -31 -23 -24 -30
30 -30 28 0 50 5 50 10 0 6 11 10 25 10 29 0 115 79 115 105 0 8 5 15 10 15 6
0 10 9 10 20 0 11 5 20 10 20 6 0 10 9 10 20 0 11 5 20 10 20 6 0 10 14 10 30
0 17 5 30 10 30 6 0 10 14 10 30 0 17 5 30 10 30 6 0 10 14 10 30 0 23 -4 30
-20 30 -11 0 -20 -4 -20 -10z"/>
<path d="M1220 2090 c0 -5 5 -10 10 -10 6 0 10 -7 10 -16 0 -9 14 -29 30 -44
17 -15 30 -33 30 -40 0 -16 26 -40 44 -40 9 0 16 -4 16 -10 0 -5 9 -10 20 -10
11 0 20 -4 20 -10 0 -5 14 -10 30 -10 17 0 30 -4 30 -10 0 -6 30 -10 70 -10
40 0 70 -4 70 -10 0 -5 14 -10 30 -10 17 0 30 -4 30 -10 0 -5 9 -10 20 -10 13
0 20 7 20 20 0 11 -4 20 -10 20 -5 0 -10 11 -10 25 0 29 -79 115 -105 115 -8
0 -15 5 -15 10 0 6 -9 10 -20 10 -11 0 -20 5 -20 10 0 6 -18 10 -40 10 -22 0
-40 5 -40 10 0 6 -33 10 -80 10 -47 0 -80 4 -80 10 0 6 -13 10 -30 10 -16 0
-30 -4 -30 -10z"/>
<path d="M2560 2050 c0 -5 -9 -10 -20 -10 -11 0 -20 -4 -20 -10 0 -5 -9 -10
-20 -10 -11 0 -20 -4 -20 -10 0 -5 -9 -10 -20 -10 -11 0 -20 -4 -20 -10 0 -5
-8 -10 -18 -10 -10 0 -24 -9 -32 -20 -8 -11 -20 -20 -28 -20 -18 0 -62 -46
-62 -65 0 -10 10 -15 30 -15 17 0 30 -4 30 -10 0 -6 37 -10 90 -10 53 0 90 4
90 10 0 6 9 10 20 10 11 0 20 5 20 10 0 6 8 10 18 10 10 0 24 9 32 20 8 11 21
20 30 20 9 0 22 9 30 20 8 11 22 20 32 20 10 0 18 5 18 10 0 6 18 10 40 10 22
0 40 5 40 10 0 6 -8 10 -18 10 -10 0 -24 9 -32 20 -8 11 -22 20 -32 20 -10 0
-18 5 -18 10 0 6 -33 10 -80 10 -47 0 -80 -4 -80 -10z"/>
<path d="M700 2025 c0 -19 64 -85 82 -85 8 0 20 -9 28 -20 8 -12 26 -20 42
-20 15 0 28 -4 28 -10 0 -6 57 -10 150 -10 93 0 150 -4 150 -10 0 -5 5 -10 10
-10 6 0 10 9 10 20 0 11 -4 20 -10 20 -5 0 -10 7 -10 15 0 20 -65 85 -85 85
-8 0 -15 5 -15 10 0 6 -9 10 -20 10 -11 0 -20 5 -20 10 0 6 -63 10 -170 10
-146 0 -170 -2 -170 -15z"/>
<path d="M260 1970 c0 -5 -9 -10 -20 -10 -11 0 -20 -4 -20 -10 0 -5 -13 -10
-30 -10 -16 0 -30 -4 -30 -10 0 -5 -18 -10 -40 -10 -22 0 -40 -4 -40 -10 0 -5
-13 -10 -30 -10 -16 0 -30 -2 -30 -5 0 -13 50 -55 65 -55 8 0 15 -4 15 -10 0
-5 9 -10 20 -10 11 0 20 -4 20 -10 0 -6 33 -10 80 -10 47 0 80 4 80 10 0 6 18
10 40 10 22 0 40 5 40 10 0 6 14 10 30 10 17 0 30 5 30 10 0 6 9 10 20 10 11
0 20 5 20 10 0 6 9 10 20 10 11 0 20 5 20 10 0 6 9 10 20 10 11 0 20 5 20 10
0 6 -9 10 -20 10 -11 0 -20 5 -20 10 0 6 -9 10 -20 10 -11 0 -20 5 -20 10 0 6
-9 10 -20 10 -11 0 -20 5 -20 10 0 6 -37 10 -90 10 -53 0 -90 -4 -90 -10z"/>
<path d="M1340 1790 c0 -5 -13 -10 -30 -10 -16 0 -30 -4 -30 -10 0 -5 -13 -10
-30 -10 -16 0 -30 -4 -30 -10 0 -5 -9 -10 -20 -10 -11 0 -20 -4 -20 -10 0 -5
-9 -10 -20 -10 -11 0 -20 -4 -20 -10 0 -5 -7 -10 -16 -10 -15 0 -44 -23 -44
-34 0 -3 9 -6 20 -6 11 0 20 -4 20 -10 0 -5 9 -10 20 -10 11 0 20 -4 20 -10 0
-5 14 -10 30 -10 17 0 30 -4 30 -10 0 -5 23 -10 50 -10 28 0 50 5 50 10 0 6
14 10 30 10 17 0 30 5 30 10 0 6 9 10 20 10 11 0 20 5 20 10 0 6 14 10 30 10
17 0 30 5 30 10 0 6 14 10 30 10 17 0 30 5 30 10 0 6 14 10 30 10 23 0 30 4
30 20 0 13 -7 20 -18 20 -10 0 -24 9 -32 20 -8 11 -22 20 -32 20 -10 0 -18 5
-18 10 0 6 -33 10 -80 10 -47 0 -80 -4 -80 -10z"/>
<path d="M640 1750 c0 -5 -13 -10 -30 -10 -16 0 -30 -4 -30 -10 0 -5 -8 -10
-18 -10 -10 0 -24 -9 -32 -20 -8 -11 -21 -20 -30 -20 -9 0 -22 -9 -30 -20 -8
-11 -20 -20 -28 -20 -12 0 -82 -63 -82 -75 0 -3 9 -5 20 -5 11 0 20 -4 20 -10
0 -6 40 -10 100 -10 60 0 100 4 100 10 0 6 9 10 20 10 11 0 20 5 20 10 0 6 8
10 18 10 10 0 24 9 32 20 8 11 21 20 30 20 9 0 22 9 30 20 8 11 22 20 32 20
10 0 18 5 18 10 0 6 9 10 20 10 11 0 20 5 20 10 0 6 9 10 20 10 11 0 20 5 20
10 0 6 -9 10 -20 10 -11 0 -20 5 -20 10 0 6 -9 10 -20 10 -11 0 -20 5 -20 10
0 6 -33 10 -80 10 -47 0 -80 -4 -80 -10z"/>
<path d="M2300 1710 c0 -5 -22 -10 -50 -10 -27 0 -50 -4 -50 -10 0 -5 -9 -10
-20 -10 -11 0 -20 -4 -20 -10 0 -5 7 -10 16 -10 9 0 29 -13 44 -30 15 -16 35
-30 44 -30 9 0 16 -4 16 -10 0 -5 9 -10 20 -10 11 0 20 -4 20 -10 0 -6 37 -10
90 -10 53 0 90 4 90 10 0 15 177 13 183 -2 2 -8 8 -9 13 -4 5 5 4 11 -3 13 -7
3 -13 11 -13 19 0 19 -85 104 -105 104 -8 0 -15 5 -15 10 0 6 -50 10 -130 10
-80 0 -130 -4 -130 -10z"/>
<path d="M1720 1670 c0 -16 -4 -30 -10 -30 -6 0 -10 -40 -10 -100 0 -60 4
-100 10 -100 6 0 10 -18 10 -40 0 -22 5 -40 10 -40 6 0 10 -18 10 -40 0 -22 5
-40 10 -40 6 0 10 -13 10 -30 0 -16 5 -30 10 -30 6 0 10 -13 10 -30 0 -16 5
-30 10 -30 6 0 10 -18 10 -40 0 -22 5 -40 10 -40 6 0 10 -13 10 -30 0 -16 5
-30 10 -30 6 0 10 -13 10 -30 0 -16 5 -30 10 -30 6 0 10 -18 10 -40 0 -22 5
-40 10 -40 6 0 10 -18 10 -40 0 -22 5 -40 10 -40 6 0 10 -33 10 -80 0 -47 4
-80 10 -80 6 0 10 18 10 40 0 22 5 40 10 40 6 0 10 53 10 140 0 87 -4 140 -10
140 -5 0 -10 18 -10 40 0 22 -4 40 -10 40 -5 0 -10 14 -10 30 0 17 -4 30 -10
30 -5 0 -10 14 -10 30 0 17 -4 30 -10 30 -5 0 -10 14 -10 30 0 17 -4 30 -10
30 -5 0 -10 14 -10 30 0 17 -4 30 -10 30 -5 0 -10 18 -10 40 0 22 -4 40 -10
40 -5 0 -10 18 -10 40 0 22 -4 40 -10 40 -5 0 -10 23 -10 50 0 28 -4 50 -10
50 -6 0 -10 27 -10 60 0 53 -2 60 -20 60 -16 0 -20 -7 -20 -30z"/>
<path d="M1880 1580 c0 -11 5 -20 10 -20 6 0 10 -9 10 -20 0 -11 5 -20 10 -20
6 0 10 -7 10 -15 0 -9 16 -31 35 -50 19 -19 41 -35 50 -35 8 0 15 -4 15 -10 0
-5 9 -10 20 -10 11 0 20 -4 20 -10 0 -5 14 -10 30 -10 17 0 30 -4 30 -10 0 -5
14 -10 30 -10 17 0 30 -4 30 -10 0 -5 13 -10 28 -10 16 0 34 -8 42 -20 8 -11
22 -20 32 -20 14 0 18 8 18 40 0 22 -4 40 -10 40 -5 0 -10 9 -10 20 0 11 -4
20 -10 20 -5 0 -10 7 -10 15 0 20 -45 65 -65 65 -8 0 -15 5 -15 10 0 6 -9 10
-20 10 -11 0 -20 5 -20 10 0 6 -9 10 -20 10 -11 0 -20 5 -20 10 0 6 -13 10
-30 10 -16 0 -30 5 -30 10 0 6 -18 10 -40 10 -22 0 -40 5 -40 10 0 6 -18 10
-40 10 -33 0 -40 -3 -40 -20z"/>
<path d="M1460 1570 c0 -5 -11 -10 -25 -10 -18 0 -45 -19 -90 -65 -36 -35 -65
-70 -65 -78 0 -7 -9 -19 -20 -27 -11 -8 -20 -22 -20 -32 0 -10 -4 -18 -10 -18
-5 0 -10 -9 -10 -20 0 -11 -4 -20 -10 -20 -5 0 -10 -9 -10 -20 0 -11 -4 -20
-10 -20 -5 0 -10 -9 -10 -20 0 -17 7 -20 40 -20 22 0 40 5 40 10 0 6 9 10 20
10 11 0 20 5 20 10 0 6 9 10 20 10 11 0 20 5 20 10 0 6 7 10 15 10 19 0 65 44
65 62 0 8 9 20 20 28 11 8 20 22 20 32 0 10 5 18 10 18 6 0 10 8 10 18 0 10 9
24 20 32 11 8 20 21 20 28 0 8 14 27 30 42 17 15 30 31 30 34 0 3 -27 6 -60 6
-33 0 -60 -4 -60 -10z"/>
<path d="M940 1550 c0 -5 -13 -10 -30 -10 -16 0 -30 -4 -30 -10 0 -5 -13 -10
-30 -10 -16 0 -30 -4 -30 -10 0 -5 -9 -10 -20 -10 -11 0 -20 -4 -20 -10 0 -5
-13 -10 -30 -10 -16 0 -30 -4 -30 -10 0 -5 -13 -10 -30 -10 -16 0 -30 -2 -30
-5 0 -13 71 -75 85 -75 8 0 15 -4 15 -10 0 -6 37 -10 90 -10 53 0 90 4 90 10
0 6 14 10 30 10 17 0 30 5 30 10 0 6 9 10 20 10 11 0 20 5 20 10 0 6 14 10 30
10 17 0 30 5 30 10 0 6 9 10 20 10 11 0 20 5 20 10 0 6 9 10 20 10 11 0 20 3
20 6 0 11 -29 34 -44 34 -9 0 -16 5 -16 10 0 6 -9 10 -20 10 -11 0 -20 5 -20
10 0 6 -18 10 -40 10 -22 0 -40 5 -40 10 0 6 -13 10 -30 10 -16 0 -30 -4 -30
-10z"/>
<path d="M2000 1220 c0 -11 -4 -20 -10 -20 -5 0 -10 -22 -10 -50 0 -27 5 -50
10 -50 6 0 10 -30 10 -70 0 -40 4 -70 10 -70 6 0 10 30 10 70 0 40 4 70 10 70
6 0 10 30 10 70 0 63 -2 70 -20 70 -13 0 -20 -7 -20 -20z"/>
<path d="M1700 1170 c0 -16 -4 -30 -10 -30 -5 0 -10 -9 -10 -20 0 -11 -4 -20
-10 -20 -5 0 -10 -9 -10 -20 0 -11 -4 -20 -10 -20 -5 0 -10 -8 -10 -18 0 -10
-9 -24 -20 -32 -11 -8 -20 -20 -20 -27 0 -17 -126 -143 -143 -143 -7 0 -19 -9
-27 -20 -8 -11 -22 -20 -32 -20 -10 0 -18 -4 -18 -10 0 -5 -9 -10 -20 -10 -11
0 -20 -4 -20 -10 0 -5 -9 -10 -20 -10 -11 0 -20 -4 -20 -10 0 -5 -13 -10 -30
-10 -16 0 -30 -4 -30 -10 0 -5 -13 -10 -30 -10 -16 0 -30 -4 -30 -10 0 -5 -9
-10 -20 -10 -11 0 -20 -4 -20 -10 0 -5 -13 -10 -30 -10 -16 0 -30 -4 -30 -10
0 -5 -9 -10 -20 -10 -11 0 -20 -4 -20 -10 0 -5 -9 -10 -20 -10 -11 0 -20 -4
-20 -10 0 -5 -9 -10 -20 -10 -11 0 -20 -4 -20 -10 0 -5 -8 -10 -18 -10 -10 0
-24 -9 -32 -20 -8 -11 -21 -20 -30 -20 -9 0 -22 -9 -30 -20 -8 -11 -21 -20
-30 -20 -9 0 -22 -9 -30 -20 -8 -11 -20 -20 -27 -20 -16 0 -207 -189 -199
-197 3 -4 14 4 25 15 10 12 24 22 31 22 6 0 25 14 40 30 15 17 35 30 44 30 9
0 16 5 16 10 0 6 8 10 18 10 10 0 24 9 32 20 8 11 22 20 32 20 10 0 18 5 18
10 0 6 14 10 30 10 17 0 30 5 30 10 0 6 9 10 20 10 11 0 20 5 20 10 0 6 9 10
20 10 11 0 20 5 20 10 0 6 14 10 30 10 17 0 30 5 30 10 0 6 14 10 30 10 17 0
30 5 30 10 0 6 9 10 20 10 11 0 20 5 20 10 0 6 9 10 20 10 11 0 20 5 20 10 0
6 14 10 30 10 17 0 30 5 30 10 0 6 14 10 30 10 17 0 30 5 30 10 0 6 9 10 20
10 11 0 20 5 20 10 0 6 9 10 20 10 11 0 20 5 20 10 0 6 9 10 20 10 11 0 20 5
20 10 0 6 9 10 20 10 11 0 20 5 20 10 0 6 8 10 18 10 10 0 24 9 32 20 8 11 20
20 27 20 17 0 123 106 123 123 0 7 9 19 20 27 11 8 20 22 20 32 0 10 5 18 10
18 6 0 10 14 10 30 0 17 5 30 10 30 6 0 10 26 10 59 0 38 5 61 13 65 10 5 10
7 0 12 -7 3 -13 14 -13 25 0 10 -4 19 -10 19 -5 0 -10 -13 -10 -30z"/>
<path d="M1760 900 c0 -11 -4 -20 -10 -20 -5 0 -10 -18 -10 -40 0 -22 -4 -40
-10 -40 -5 0 -10 -13 -10 -30 0 -16 -4 -30 -10 -30 -5 0 -10 -9 -10 -20 0 -11
-4 -20 -10 -20 -5 0 -10 -13 -10 -30 0 -16 -4 -30 -10 -30 -5 0 -10 -8 -10
-18 0 -10 -9 -24 -20 -32 -11 -8 -20 -21 -20 -30 0 -9 -9 -22 -20 -30 -11 -8
-20 -22 -20 -32 0 -10 -4 -18 -10 -18 -5 0 -10 -18 -10 -40 0 -22 5 -40 10
-40 6 0 10 -7 10 -15 0 -20 65 -85 85 -85 8 0 15 -4 15 -10 0 -5 9 -10 20 -10
17 0 20 7 20 40 0 22 -4 40 -10 40 -6 0 -10 30 -10 70 0 40 4 70 10 70 6 0 10
14 10 30 0 17 5 30 10 30 6 0 10 18 10 40 0 22 5 40 10 40 6 0 10 37 10 90 0
53 4 90 10 90 6 0 10 23 10 50 0 28 -4 50 -10 50 -5 0 -10 -9 -10 -20z"/>
<path d="M2120 790 c0 -27 -4 -50 -10 -50 -5 0 -10 -18 -10 -40 0 -22 -4 -40
-10 -40 -5 0 -10 -9 -10 -20 0 -11 -4 -20 -10 -20 -5 0 -10 -8 -10 -18 0 -10
-9 -24 -20 -32 -11 -8 -20 -21 -20 -28 0 -8 -13 -27 -30 -42 -16 -15 -30 -34
-30 -42 0 -7 -9 -20 -20 -28 -11 -8 -20 -22 -20 -32 0 -10 -4 -18 -10 -18 -5
0 -10 -9 -10 -20 0 -11 -4 -20 -10 -20 -5 0 -10 -9 -10 -20 0 -11 -4 -20 -10
-20 -5 0 -10 -9 -10 -20 0 -11 -4 -20 -10 -20 -5 0 -10 -13 -10 -30 0 -16 -4
-30 -10 -30 -5 0 -10 -9 -10 -20 0 -11 5 -20 10 -20 6 0 10 7 10 16 0 9 14 29
30 44 17 15 30 33 30 39 0 7 45 56 100 111 55 55 100 106 100 115 0 8 5 15 10
15 6 0 10 9 10 20 0 11 5 20 10 20 6 0 10 14 10 30 0 17 5 30 10 30 6 0 10 33
10 80 0 47 -4 80 -10 80 -5 0 -10 18 -10 40 0 22 -4 40 -10 40 -5 0 -10 -22
-10 -50z"/>
<path d="M2240 690 c0 -5 5 -10 10 -10 6 0 10 -18 10 -40 0 -22 5 -40 10 -40
6 0 10 -9 10 -20 0 -11 5 -20 10 -20 6 0 10 -9 10 -20 0 -11 5 -20 10 -20 6 0
10 -9 10 -20 0 -11 5 -20 10 -20 6 0 10 -7 10 -15 0 -20 145 -165 165 -165 8
0 15 -4 15 -10 0 -5 9 -10 20 -10 11 0 20 -4 20 -10 0 -5 9 -10 20 -10 11 0
20 -4 20 -10 0 -5 9 -10 20 -10 11 0 20 -4 20 -10 0 -5 18 -10 40 -10 22 0 40
-4 40 -10 0 -5 14 -10 30 -10 17 0 30 -4 30 -10 0 -5 14 -10 30 -10 17 0 30
-4 30 -10 0 -5 9 -10 20 -10 11 0 20 -4 20 -10 0 -5 9 -10 20 -10 11 0 20 -4
20 -10 0 -5 9 -10 20 -10 11 0 20 -4 20 -10 0 -5 9 -10 19 -10 11 0 21 -6 24
-12 2 -8 8 -9 13 -4 5 5 4 11 -3 13 -7 3 -13 11 -13 19 0 18 -85 104 -103 104
-7 0 -19 9 -27 20 -8 11 -22 20 -32 20 -10 0 -18 5 -18 10 0 6 -13 10 -30 10
-16 0 -30 5 -30 10 0 6 -13 10 -30 10 -16 0 -30 5 -30 10 0 6 -13 10 -30 10
-16 0 -30 5 -30 10 0 6 -8 10 -18 10 -10 0 -24 9 -32 20 -8 11 -22 20 -32 20
-10 0 -18 5 -18 10 0 6 -7 10 -15 10 -19 0 -185 164 -185 183 0 7 -9 19 -20
27 -11 8 -20 20 -20 28 0 12 -43 62 -55 62 -3 0 -5 -4 -5 -10z"/>
<path d="M1460 630 c0 -5 -9 -10 -20 -10 -11 0 -20 -4 -20 -10 0 -5 -7 -10
-15 -10 -19 0 -105 -84 -105 -103 0 -7 -9 -19 -20 -27 -11 -8 -20 -22 -20 -32
0 -10 -4 -18 -10 -18 -5 0 -10 -18 -10 -40 0 -22 -4 -40 -10 -40 -5 0 -10 -22
-10 -50 0 -27 -4 -50 -10 -50 -6 0 -10 -30 -10 -70 0 -40 4 -70 10 -70 6 0 10
18 10 40 0 22 5 40 10 40 6 0 10 14 10 30 0 17 5 30 10 30 6 0 10 14 10 30 0
17 5 30 10 30 6 0 10 9 10 20 0 11 5 20 10 20 6 0 10 8 10 18 0 10 9 24 20 32
11 8 20 20 20 28 0 18 66 82 85 82 8 0 15 5 15 10 0 6 7 10 15 10 18 0 85 64
85 80 0 20 -28 40 -54 40 -14 0 -26 -4 -26 -10z"/>
<path d="M531 244 c-18 -21 -6 -30 14 -11 8 9 15 18 15 21 0 11 -15 5 -29 -10z"/>
</g>
</svg>
